<?xml version="1.0" encoding="utf-8"?>
<!-- Generator: Adobe Illustrator 19.2.1, SVG Export Plug-In . SVG Version: 6.00 Build 0)  -->
<!DOCTYPE svg PUBLIC "-//W3C//DTD SVG 1.1//EN" "http://www.w3.org/Graphics/SVG/1.1/DTD/svg11.dtd">
<svg version="1.1" id="chancesleet" xmlns="http://www.w3.org/2000/svg" xmlns:xlink="http://www.w3.org/1999/xlink" x="0px"
	 y="0px" width="50px" height="50px" viewBox="0 0 50 50" style="enable-background:new 0 0 50 50;" xml:space="preserve">
<style type="text/css">
	.st0{fill:#231F20;}
</style>
<g>
	<path class="st0" d="M37.5,16C36,11.7,32,8.8,27.4,8.8c-3.9,0-7.5,2.2-9.4,5.6c-0.3,0-0.6-0.1-0.9-0.1c-2.7,0-5.1,1.9-5.7,4.5
		c-3.5,1.1-5.9,4.3-5.9,8c0,4.6,3.8,8.4,8.4,8.4l0,0c0.5,0,1-0.4,1-1c0-0.5-0.4-1-1-1c-3.6,0-6.5-2.9-6.5-6.5c0-3,2.1-5.6,5-6.3
		l0.7-0.2l0.1-0.7c0.2-2,1.9-3.5,3.9-3.5c0.4,0,0.8,0.1,1.1,0.2l0.8,0.2l0.3-0.8c1.4-3.1,4.5-5.2,8-5.2c3.9,0,7.3,2.6,8.4,6.3
		l0.2,0.5l0.5,0.1c3.5,0.9,6,4,6,7.7c0,4.4-3.6,7.9-7.9,7.9h-0.1c-0.5,0-1,0.4-1,1c0,0.5,0.4,1,1,1h0.1c5.4,0,9.9-4.4,9.9-9.9
		C44.4,21,41.6,17.2,37.5,16z"/>
	<path class="st0" d="M26,39.5c0.7,0,1.2-0.5,1.2-1.2s-0.5-1.8-1.2-1.8s-1.2,1.2-1.2,1.8C24.8,39,25.3,39.5,26,39.5z"/>
	<path class="st0" d="M29.2,35.3c0.7,0,1.2-0.5,1.2-1.2s-0.5-1.8-1.2-1.8S28,33.6,28,34.2S28.6,35.3,29.2,35.3z"/>
	<path class="st0" d="M22.7,35.3c0.7,0,1.2-0.5,1.2-1.2s-0.5-1.8-1.2-1.8s-1.2,1.2-1.2,1.8S22,35.3,22.7,35.3z"/>
	<path class="st0" d="M20,35.8c-0.1-0.1-0.2-0.2-0.4-0.1l-0.7,0.4v-0.8c0-0.2-0.1-0.3-0.3-0.3s-0.3,0.1-0.3,0.3v0.8l-0.7-0.4
		c-0.1-0.1-0.3,0-0.4,0.1s0,0.3,0.1,0.4l0.7,0.4L17.3,37c-0.1,0.1-0.2,0.2-0.1,0.4c0.1,0.1,0.1,0.1,0.2,0.1h0.1l0.7-0.4V38
		c0,0.2,0.1,0.3,0.3,0.3s0.3-0.1,0.3-0.3v-0.8l0.7,0.4h0.1c0.1,0,0.2-0.1,0.2-0.1c0.1-0.1,0-0.3-0.1-0.4L19,36.7l0.7-0.4
		C20.1,36.2,20.1,35.9,20,35.8z"/>
	<path class="st0" d="M31.5,37.2c-0.1-0.1-0.2-0.2-0.4-0.1l-0.4,0.2v-0.5c0-0.2-0.1-0.3-0.3-0.3s-0.3,0.1-0.3,0.3v0.5l-0.4-0.2
		c-0.1-0.1-0.3,0-0.4,0.1s0,0.3,0.1,0.4l0.4,0.2L29.4,38c-0.1,0.1-0.2,0.2-0.1,0.4c0.1,0.1,0.1,0.1,0.2,0.1h0.1l0.4-0.2v0.5
		c0,0.2,0.1,0.3,0.3,0.3s0.3-0.1,0.3-0.3v-0.5l0.4,0.2h0.1c0.1,0,0.2-0.1,0.2-0.1c0.1-0.1,0-0.3-0.1-0.4l-0.4-0.2l0.4-0.2
		C31.5,37.5,31.5,37.3,31.5,37.2z"/>
	<path class="st0" d="M23.5,38.8c-0.1-0.1-0.2-0.2-0.4-0.1l-0.7,0.4v-0.8c0-0.2-0.1-0.3-0.3-0.3s-0.3,0.1-0.3,0.3v0.8l-0.7-0.4
		c-0.1-0.1-0.3,0-0.4,0.1s0,0.3,0.1,0.4l0.7,0.4L21,39.9c-0.1,0.1-0.2,0.2-0.1,0.4c0.1,0.1,0.1,0.1,0.2,0.1h0.1l0.7-0.4v0.8
		c0,0.2,0.1,0.3,0.3,0.3s0.3-0.1,0.3-0.3V40l0.7,0.4h0.1c0.1,0,0.2-0.1,0.2-0.1c0.1-0.1,0-0.3-0.1-0.4l-0.7-0.4l0.7-0.4
		C23.6,39.1,23.6,38.9,23.5,38.8z"/>
</g>
</svg>
