<?xml version="1.0" encoding="utf-8"?>
<!-- Generator: Adobe Illustrator 19.2.1, SVG Export Plug-In . SVG Version: 6.00 Build 0)  -->
<!DOCTYPE svg PUBLIC "-//W3C//DTD SVG 1.1//EN" "http://www.w3.org/Graphics/SVG/1.1/DTD/svg11.dtd">
<svg version="1.1" id="chancesnow" xmlns="http://www.w3.org/2000/svg" xmlns:xlink="http://www.w3.org/1999/xlink" x="0px" y="0px"
	 width="50px" height="50px" viewBox="0 0 50 50" style="enable-background:new 0 0 50 50;" xml:space="preserve">
<style type="text/css">
	.st0{fill:#231F20;}
</style>
<g>
	<path class="st0" d="M38.2,12.9c-1.5-4.5-5.8-7.6-10.6-7.6c-4.1,0-7.9,2.3-9.9,5.9c-0.3-0.1-0.6-0.1-1-0.1c-2.9,0-5.3,2-6,4.7
		c-3.7,1.1-6.2,4.5-6.2,8.4c0,4.9,4,8.8,8.8,8.8h3.6c0.5,0,1-0.4,1-1c0-0.5-0.4-1-1-1h-3.6c-3.8,0-6.9-3.1-6.9-6.9
		c0-3.2,2.2-6,5.3-6.7l0.7-0.2l0.1-0.7c0.2-2.1,2-3.7,4.2-3.7c0.4,0,0.8,0.1,1.2,0.2l0.8,0.2l0.3-0.8C20.5,9.2,23.8,7,27.5,7
		c4.1,0,7.8,2.8,8.9,6.7l0.2,0.5l0.5,0.1c3.7,0.9,6.4,4.3,6.4,8.2c0,4.6-3.8,8.4-8.4,8.4h-2.2c-0.5,0-1,0.4-1,1c0,0.5,0.4,1,1,1h2.2
		c5.7,0,10.3-4.6,10.3-10.3C45.5,18.2,42.6,14.2,38.2,12.9z"/>
	<path class="st0" d="M28.2,30.3c-0.2-0.3-0.6-0.4-0.9-0.2l-1.9,1.1V29c0-0.4-0.3-0.6-0.6-0.6c-0.4,0-0.6,0.3-0.6,0.6v2.2l-1.9-1.1
		c-0.3-0.2-0.7-0.1-0.9,0.2c-0.2,0.3-0.1,0.7,0.2,0.9l1.9,1.1l-1.9,1.1c-0.3,0.2-0.4,0.6-0.2,0.9c0.1,0.2,0.3,0.3,0.6,0.3
		c0.1,0,0.2,0,0.3-0.1l1.9-1.1v2.2c0,0.4,0.3,0.6,0.6,0.6c0.4,0,0.6-0.3,0.6-0.6v-2.2l1.9,1.1c0.1,0.1,0.2,0.1,0.3,0.1
		c0.2,0,0.4-0.1,0.6-0.3c0.2-0.3,0.1-0.7-0.2-0.9l-1.9-1.1l1.9-1.1C28.3,31,28.4,30.7,28.2,30.3z"/>
	<path class="st0" d="M35.8,36.6c-0.2-0.3-0.6-0.4-0.9-0.2l-1.5,0.9v-1.7c0-0.4-0.3-0.6-0.6-0.6c-0.4,0-0.6,0.3-0.6,0.6v1.7
		l-1.5-0.9c-0.3-0.2-0.7-0.1-0.9,0.2c-0.2,0.3-0.1,0.7,0.2,0.9l1.5,0.9L30,39.3c-0.3,0.2-0.4,0.6-0.2,0.9c0.1,0.2,0.3,0.3,0.6,0.3
		c0.1,0,0.2,0,0.3-0.1l1.5-0.9v1.7c0,0.4,0.3,0.6,0.6,0.6c0.4,0,0.6-0.3,0.6-0.6v-1.7l1.5,0.9c0.1,0.1,0.2,0.1,0.3,0.1
		c0.2,0,0.4-0.1,0.6-0.3c0.2-0.3,0.1-0.7-0.2-0.9l-1.5-0.9l1.5-0.9C35.9,37.3,36,36.9,35.8,36.6z"/>
	<path class="st0" d="M20,35.9c-0.2-0.3-0.6-0.4-0.9-0.2l-0.9,0.5v-1.1c0-0.4-0.3-0.6-0.6-0.6c-0.4,0-0.6,0.3-0.6,0.6v1.1l-0.9-0.5
		c-0.3-0.2-0.7-0.1-0.9,0.2s-0.1,0.7,0.2,0.9l0.9,0.5l-0.9,0.5c-0.3,0.2-0.4,0.6-0.2,0.9c0.1,0.2,0.3,0.3,0.6,0.3
		c0.1,0,0.2,0,0.3-0.1l0.9-0.5v1.1c0,0.4,0.3,0.6,0.6,0.6c0.4,0,0.6-0.3,0.6-0.6v-1.1l0.9,0.5c0.1,0.1,0.2,0.1,0.3,0.1
		c0.2,0,0.4-0.1,0.6-0.3c0.2-0.3,0.1-0.7-0.2-0.9l-0.9-0.5l0.9-0.5C20.1,36.6,20.2,36.2,20,35.9z"/>
</g>
<path class="st0" d="M27.2,40.4c-0.2-0.3-0.6-0.4-0.9-0.2l-0.9,0.5v-1.1c0-0.4-0.3-0.6-0.6-0.6c-0.4,0-0.6,0.3-0.6,0.6v1.1l-0.9-0.5
	c-0.3-0.2-0.7-0.1-0.9,0.2c-0.2,0.3-0.1,0.7,0.2,0.9l0.9,0.5l-0.9,0.5c-0.3,0.2-0.4,0.6-0.2,0.9c0.1,0.2,0.3,0.3,0.6,0.3
	c0.1,0,0.2,0,0.3-0.1l0.9-0.5V44c0,0.4,0.3,0.6,0.6,0.6c0.4,0,0.6-0.3,0.6-0.6v-1l0.9,0.5c0.1,0.1,0.2,0.1,0.3,0.1
	c0.2,0,0.4-0.1,0.6-0.3c0.2-0.3,0.1-0.7-0.2-0.9l-0.9-0.5l0.9-0.5C27.3,41.1,27.4,40.7,27.2,40.4z"/>
</svg>
