<?xml version="1.0" encoding="utf-8"?>
<!-- Generator: Adobe Illustrator 19.2.1, SVG Export Plug-In . SVG Version: 6.00 Build 0)  -->
<!DOCTYPE svg PUBLIC "-//W3C//DTD SVG 1.1//EN" "http://www.w3.org/Graphics/SVG/1.1/DTD/svg11.dtd">
<svg version="1.1" id="chancerain" xmlns="http://www.w3.org/2000/svg" xmlns:xlink="http://www.w3.org/1999/xlink" x="0px" y="0px"
	 width="50px" height="50px" viewBox="0 0 50 50" style="enable-background:new 0 0 50 50;" xml:space="preserve">
<style type="text/css">
	.st0{fill:#231F20;}
</style>
<g>
	<path class="st0" d="M37.5,14.2C36,9.9,31.9,6.9,27.4,6.9c-3.9,0-7.5,2.2-9.4,5.6c-0.3,0-0.6-0.1-0.9-0.1c-2.7,0-5.1,1.9-5.7,4.5
		c-3.5,1.1-5.9,4.3-5.9,8c0,4.6,3.7,8.3,8.3,8.4c0.5,0,1-0.4,1-0.9s-0.4-1-0.9-1c-3.5-0.1-6.4-3-6.4-6.5c0-3,2.1-5.6,5-6.3l0.7-0.2
		l0.1-0.7c0.2-2,1.9-3.5,3.9-3.5c0.4,0,0.8,0.1,1.1,0.2l0.8,0.2l0.3-0.8c1.4-3.1,4.5-5.2,8-5.2c3.9,0,7.3,2.6,8.4,6.3l0.2,0.5
		l0.5,0.1c3.5,0.9,6,4,6,7.7c0,4.4-3.6,7.9-7.9,7.9h-0.1c-0.5,0-1,0.4-1,1c0,0.5,0.4,1,1,1h0.1c5.4,0,9.9-4.4,9.9-9.9
		C44.4,19.2,41.6,15.4,37.5,14.2z"/>
	<path class="st0" d="M26.7,38.5c-0.5,0-1,0.4-1,1v2.6c0,0.5,0.4,1,1,1c0.5,0,1-0.4,1-1v-2.6C27.7,38.9,27.3,38.5,26.7,38.5z"/>
	<path class="st0" d="M26.7,31.5c-0.5,0-1,0.4-1,1v3.3c0,0.5,0.4,1,1,1c0.5,0,1-0.4,1-1v-3.3C27.7,31.9,27.3,31.5,26.7,31.5z"/>
	<path class="st0" d="M21.9,31.5c-0.5,0-1,0.4-1,1v6.4c0,0.5,0.4,1,1,1c0.5,0,1-0.4,1-1v-6.4C22.9,31.9,22.5,31.5,21.9,31.5z"/>
	<path class="st0" d="M17.1,31.5c-0.5,0-1,0.4-1,1v4.2c0,0.5,0.4,1,1,1c0.5,0,1-0.4,1-1v-4.2C18.1,31.9,17.6,31.5,17.1,31.5z"/>
	<path class="st0" d="M31.5,31.5c-0.5,0-1,0.4-1,1v5.1c0,0.5,0.4,1,1,1c0.5,0,1-0.4,1-1v-5.1C32.5,31.9,32.1,31.5,31.5,31.5z"/>
</g>
</svg>
