<?xml version="1.0" encoding="utf-8"?>
<!-- Generator: Adobe Illustrator 19.2.1, SVG Export Plug-In . SVG Version: 6.00 Build 0)  -->
<!DOCTYPE svg PUBLIC "-//W3C//DTD SVG 1.1//EN" "http://www.w3.org/Graphics/SVG/1.1/DTD/svg11.dtd">
<svg version="1.1" id="chanceflurries" xmlns="http://www.w3.org/2000/svg" xmlns:xlink="http://www.w3.org/1999/xlink" x="0px"
	 y="0px" width="50px" height="50px" viewBox="0 0 50 50" style="enable-background:new 0 0 50 50;" xml:space="preserve">
<style type="text/css">
	.st0{fill:#231F20;}
</style>
<g>
	<path class="st0" d="M38.1,14.2c-1.5-4.5-5.8-7.6-10.6-7.6c-4.1,0-7.9,2.3-9.9,5.9c-0.3-0.1-0.6-0.1-1-0.1c-2.9,0-5.3,2-6,4.7
		c-3.7,1.1-6.2,4.5-6.2,8.4c0,4.9,4,8.8,8.8,8.8H17c0.5,0,1-0.4,1-1c0-0.5-0.4-1-1-1h-3.6c-3.8,0-6.9-3.1-6.9-6.9
		c0-3.2,2.2-6,5.3-6.7l0.7-0.2l0.1-0.7c0.2-2.1,2-3.7,4.2-3.7c0.4,0,0.8,0.1,1.2,0.2l0.8,0.2l0.3-0.8c1.5-3.3,4.8-5.5,8.5-5.5
		c4.1,0,7.8,2.8,8.9,6.7l0.2,0.5l0.5,0.1c3.7,0.9,6.4,4.3,6.4,8.2c0,4.6-3.8,8.4-8.4,8.4H33c-0.5,0-1,0.4-1,1c0,0.5,0.4,1,1,1h2.2
		c5.7,0,10.3-4.6,10.3-10.3C45.4,19.5,42.4,15.5,38.1,14.2z"/>
	<path class="st0" d="M28.1,31.6c-0.2-0.3-0.6-0.4-0.9-0.2l-1.9,1.1v-2.2c0-0.4-0.3-0.6-0.6-0.6c-0.4,0-0.6,0.3-0.6,0.6v2.2
		l-1.9-1.1c-0.3-0.2-0.7-0.1-0.9,0.2c-0.2,0.3-0.1,0.7,0.2,0.9l1.9,1.1l-1.9,1.1c-0.3,0.2-0.4,0.6-0.2,0.9c0.1,0.2,0.3,0.3,0.6,0.3
		c0.1,0,0.2,0,0.3-0.1l1.9-1.1v2.2c0,0.4,0.3,0.6,0.6,0.6c0.4,0,0.6-0.3,0.6-0.6v-2.2l1.9,1.1c0.1,0.1,0.2,0.1,0.3,0.1
		c0.2,0,0.4-0.1,0.6-0.3c0.2-0.3,0.1-0.7-0.2-0.9L26,33.6l1.9-1.1C28.1,32.3,28.2,31.9,28.1,31.6z"/>
	<path class="st0" d="M35.7,37.9c-0.2-0.3-0.6-0.4-0.9-0.2l-1.5,0.9v-1.7c0-0.4-0.3-0.6-0.6-0.6c-0.4,0-0.6,0.3-0.6,0.6v1.7
		l-1.5-0.9c-0.3-0.2-0.7-0.1-0.9,0.2c-0.2,0.3-0.1,0.7,0.2,0.9l1.5,0.9L30,40.5c-0.3,0.2-0.4,0.6-0.2,0.9c0.1,0.2,0.3,0.3,0.6,0.3
		c0.1,0,0.2,0,0.3-0.1l1.5-0.9v1.7c0,0.4,0.3,0.6,0.6,0.6c0.4,0,0.6-0.3,0.6-0.6v-1.7l1.5,0.9c0.1,0.1,0.2,0.1,0.3,0.1
		c0.2,0,0.4-0.1,0.6-0.3c0.2-0.3,0.1-0.7-0.2-0.9L34,39.6l1.5-0.9C35.8,38.6,35.9,38.2,35.7,37.9z"/>
	<path class="st0" d="M19.9,37.1c-0.2-0.3-0.6-0.4-0.9-0.2l-0.9,0.5v-1.1c0-0.4-0.3-0.6-0.6-0.6c-0.4,0-0.6,0.3-0.6,0.6v1.1L16,36.9
		c-0.3-0.2-0.7-0.1-0.9,0.2S15,37.8,15.3,38l0.9,0.5L15.3,39c-0.3,0.2-0.4,0.6-0.2,0.9c0.1,0.2,0.3,0.3,0.6,0.3c0.1,0,0.2,0,0.3-0.1
		l0.9-0.5v1.1c0,0.4,0.3,0.6,0.6,0.6c0.4,0,0.6-0.3,0.6-0.6v-1.1l0.9,0.5c0.1,0.1,0.2,0.1,0.3,0.1c0.2,0,0.4-0.1,0.6-0.3
		c0.2-0.3,0.1-0.7-0.2-0.9l-0.9-0.5l0.9-0.5C20,37.8,20.1,37.4,19.9,37.1z"/>
</g>
</svg>
