<?xml version="1.0" encoding="utf-8"?>
<!-- Generator: Adobe Illustrator 19.2.1, SVG Export Plug-In . SVG Version: 6.00 Build 0)  -->
<!DOCTYPE svg PUBLIC "-//W3C//DTD SVG 1.1//EN" "http://www.w3.org/Graphics/SVG/1.1/DTD/svg11.dtd">
<svg version="1.1" id="clear" xmlns="http://www.w3.org/2000/svg" xmlns:xlink="http://www.w3.org/1999/xlink" x="0px" y="0px"
	 width="50px" height="50px" viewBox="0 0 50 50" style="enable-background:new 0 0 50 50;" xml:space="preserve">
<style type="text/css">
	.st0{fill:#231F20;}
</style>
<g>
	<path class="st0" d="M25,12.8c-6.7,0-12.2,5.5-12.2,12.2S18.3,37.2,25,37.2S37.2,31.7,37.2,25S31.7,12.8,25,12.8z M25,35.3
		c-5.7,0-10.3-4.6-10.3-10.3S19.3,14.7,25,14.7S35.3,19.3,35.3,25S30.7,35.3,25,35.3z"/>
	<path class="st0" d="M25,10.9c0.5,0,1-0.4,1-1V6.7c0-0.5-0.4-1-1-1s-1,0.4-1,1v3.2C24,10.5,24.5,10.9,25,10.9z"/>
	<path class="st0" d="M25,39.1c-0.5,0-1,0.4-1,1v3.2c0,0.5,0.4,1,1,1s1-0.4,1-1v-3.2C26,39.6,25.5,39.1,25,39.1z"/>
	<path class="st0" d="M11.5,31.7l-2.8,1.6c-0.5,0.3-0.6,0.9-0.4,1.3c0.2,0.3,0.5,0.5,0.8,0.5c0.2,0,0.3,0,0.5-0.1l2.8-1.6
		c0.5-0.3,0.6-0.9,0.4-1.3C12.5,31.6,11.9,31.5,11.5,31.7z"/>
	<path class="st0" d="M38,18.5c0.2,0,0.3,0,0.5-0.1l2.8-1.6c0.5-0.3,0.6-0.9,0.4-1.3c-0.3-0.5-0.9-0.6-1.3-0.4l-2.8,1.6
		C37.1,17,37,17.6,37.2,18C37.4,18.3,37.7,18.5,38,18.5z"/>
	<path class="st0" d="M8.7,16.7l2.8,1.6c0.2,0.1,0.3,0.1,0.5,0.1c0.3,0,0.7-0.2,0.8-0.5c0.3-0.5,0.1-1-0.4-1.3L9.6,15
		c-0.5-0.3-1-0.1-1.3,0.4C8.1,15.9,8.2,16.5,8.7,16.7z"/>
	<path class="st0" d="M41.3,33.3l-2.8-1.6c-0.5-0.3-1-0.1-1.3,0.4s-0.1,1,0.4,1.3l2.8,1.6c0.2,0.1,0.3,0.1,0.5,0.1
		c0.3,0,0.7-0.2,0.8-0.5C41.9,34.2,41.8,33.6,41.3,33.3z"/>
</g>
</svg>
