<?xml version="1.0" encoding="utf-8"?>
<!-- Generator: Adobe Illustrator 19.2.1, SVG Export Plug-In . SVG Version: 6.00 Build 0)  -->
<!DOCTYPE svg PUBLIC "-//W3C//DTD SVG 1.1//EN" "http://www.w3.org/Graphics/SVG/1.1/DTD/svg11.dtd">
<svg version="1.1" id="cloudy" xmlns="http://www.w3.org/2000/svg" xmlns:xlink="http://www.w3.org/1999/xlink" x="0px" y="0px"
	 width="50px" height="50px" viewBox="0 0 50 50" style="enable-background:new 0 0 50 50;" xml:space="preserve">
<style type="text/css">
	.st0{fill:#231F20;}
</style>
<path class="st0" d="M38.3,18.9c-1.5-4.5-5.8-7.6-10.6-7.6c-4.1,0-7.9,2.3-9.9,5.9c-0.3-0.1-0.6-0.1-1-0.1c-2.9,0-5.3,2-6,4.7
	c-3.7,1.1-6.2,4.5-6.2,8.4c0,4.9,4,8.8,8.8,8.8h21.7c5.7,0,10.3-4.6,10.3-10.3C45.6,24.2,42.6,20.2,38.3,18.9z M35.2,37.2H13.5
	c-3.8,0-6.9-3.1-6.9-6.9c0-3.2,2.2-6,5.3-6.7l0.7-0.2l0.1-0.7c0.2-2.1,2-3.7,4.2-3.7c0.4,0,0.8,0.1,1.2,0.2l0.8,0.2l0.3-0.8
	c1.5-3.3,4.8-5.5,8.5-5.5c4.1,0,7.8,2.8,8.9,6.7l0.2,0.5l0.5,0.1c3.7,0.9,6.4,4.3,6.4,8.2C43.7,33.4,39.9,37.2,35.2,37.2z"/>
</svg>
