<?xml version="1.0" encoding="utf-8"?>
<!-- Generator: Adobe Illustrator 19.2.1, SVG Export Plug-In . SVG Version: 6.00 Build 0)  -->
<!DOCTYPE svg PUBLIC "-//W3C//DTD SVG 1.1//EN" "http://www.w3.org/Graphics/SVG/1.1/DTD/svg11.dtd">
<svg version="1.1" id="flurries" xmlns="http://www.w3.org/2000/svg" xmlns:xlink="http://www.w3.org/1999/xlink" x="0px" y="0px"
	 width="50px" height="50px" viewBox="0 0 50 50" style="enable-background:new 0 0 50 50;" xml:space="preserve">
<style type="text/css">
	.st0{fill:#231F20;}
</style>
<g>
	<path class="st0" d="M38.2,17.1c-1.5-4.5-5.8-7.6-10.6-7.6c-4.1,0-7.9,2.3-9.9,5.9c-0.3-0.1-0.6-0.1-1-0.1c-2.9,0-5.3,2-6,4.7
		c-3.7,1.1-6.2,4.5-6.2,8.4c0,4.9,4,8.8,8.8,8.8h3.6c0.5,0,1-0.4,1-1c0-0.5-0.4-1-1-1h-3.6c-3.8,0-6.9-3.1-6.9-6.9
		c0-3.2,2.2-6,5.3-6.7l0.7-0.2l0.1-0.7c0.2-2.1,2-3.7,4.2-3.7c0.4,0,0.8,0.1,1.2,0.2l0.8,0.2l0.3-0.8c1.5-3.3,4.8-5.5,8.5-5.5
		c4.1,0,7.8,2.8,8.9,6.7l0.2,0.5l0.5,0.1c3.7,0.9,6.4,4.3,6.4,8.2c0,4.6-3.8,8.4-8.4,8.4h-2.2c-0.5,0-1,0.4-1,1c0,0.5,0.4,1,1,1h2.2
		c5.7,0,10.3-4.6,10.3-10.3C45.5,22.4,42.5,18.4,38.2,17.1z"/>
	<path class="st0" d="M27.2,38c-0.1-0.2-0.3-0.2-0.4-0.1l-0.7,0.4v-0.8c0-0.2-0.1-0.3-0.3-0.3c-0.2,0-0.3,0.1-0.3,0.3v0.8l-0.7-0.4
		c-0.2-0.1-0.3,0-0.4,0.1c-0.1,0.2,0,0.3,0.1,0.4l0.7,0.4l-0.7,0.4c-0.2,0.1-0.2,0.3-0.1,0.4c0.1,0.1,0.2,0.2,0.3,0.2
		c0.1,0,0.1,0,0.2,0l0.7-0.4v0.8c0,0.2,0.1,0.3,0.3,0.3c0.2,0,0.3-0.1,0.3-0.3v-0.8l0.7,0.4c0,0,0.1,0,0.2,0s0.2-0.1,0.3-0.2
		c0.1-0.2,0-0.3-0.1-0.4l-0.7-0.4l0.7-0.4C27.2,38.3,27.2,38.1,27.2,38z"/>
	<path class="st0" d="M22.2,37.6c-0.1-0.2-0.3-0.2-0.4-0.1l-0.5,0.3v-0.5c0-0.2-0.1-0.3-0.3-0.3s-0.3,0.1-0.3,0.3v0.5l-0.5-0.3
		c-0.2-0.1-0.3,0-0.4,0.1c-0.1,0.2,0,0.3,0.1,0.4l0.5,0.3l-0.5,0.3c-0.2,0.1-0.2,0.3-0.1,0.4c0.1,0.1,0.2,0.2,0.3,0.2
		c0.1,0,0.1,0,0.2,0l0.5-0.3v0.5c0,0.2,0.1,0.3,0.3,0.3s0.3-0.1,0.3-0.3v-0.5l0.5,0.3c0,0,0.1,0,0.2,0s0.2-0.1,0.3-0.2
		c0.1-0.2,0-0.3-0.1-0.4l-0.5-0.3l0.5-0.3C22.3,37.9,22.3,37.8,22.2,37.6z"/>
	<path class="st0" d="M30.4,35.8c-0.1-0.2-0.3-0.2-0.4-0.1L29.5,36v-0.5c0-0.2-0.1-0.3-0.3-0.3s-0.3,0.1-0.3,0.3V36l-0.5-0.3
		c-0.2-0.1-0.3,0-0.4,0.1c-0.1,0.2,0,0.3,0.1,0.4l0.5,0.3l-0.5,0.3c-0.2,0.1-0.2,0.3-0.1,0.4c0.1,0.1,0.2,0.2,0.3,0.2s0.1,0,0.2,0
		l0.5-0.3v0.5c0,0.2,0.1,0.3,0.3,0.3s0.3-0.1,0.3-0.3V37l0.5,0.3c0,0,0.1,0,0.2,0s0.2-0.1,0.3-0.2c0.1-0.2,0-0.3-0.1-0.4L30,36.4
		l0.5-0.3C30.4,36.1,30.5,35.9,30.4,35.8z"/>
	<path class="st0" d="M25.6,34c-0.1-0.2-0.3-0.2-0.4-0.1l-0.7,0.4v-0.8c0-0.2-0.1-0.3-0.3-0.3c-0.2,0-0.3,0.1-0.3,0.3v0.8l-0.7-0.4
		c-0.2-0.1-0.3,0-0.4,0.1c-0.1,0.2,0,0.3,0.1,0.4l0.7,0.4l-0.7,0.4c-0.2,0.1-0.2,0.3-0.1,0.4c0.1,0.1,0.2,0.2,0.3,0.2
		c0.1,0,0.1,0,0.2,0l0.7-0.4v0.8c0,0.2,0.1,0.3,0.3,0.3c0.2,0,0.3-0.1,0.3-0.3v-0.8l0.7,0.4c0,0,0.1,0,0.2,0s0.2-0.1,0.3-0.2
		c0.1-0.2,0-0.3-0.1-0.4L25,34.8l0.7-0.4C25.7,34.4,25.7,34.2,25.6,34z"/>
</g>
</svg>
