<?xml version="1.0" encoding="utf-8"?>
<!-- Generator: Adobe Illustrator 19.2.1, SVG Export Plug-In . SVG Version: 6.00 Build 0)  -->
<!DOCTYPE svg PUBLIC "-//W3C//DTD SVG 1.1//EN" "http://www.w3.org/Graphics/SVG/1.1/DTD/svg11.dtd">
<svg version="1.1" id="fog" xmlns="http://www.w3.org/2000/svg" xmlns:xlink="http://www.w3.org/1999/xlink" x="0px" y="0px"
	 width="50px" height="50px" viewBox="0 0 50 50" style="enable-background:new 0 0 50 50;" xml:space="preserve">
<style type="text/css">
	.st0{fill:#231F20;}
</style>
<g>
	<g>
		<path class="st0" d="M7,17.5c4.8,3.4,10.4,4.4,16.1,2.9c6.2-1.6,12.5-5.7,19.1-3.4c1.3,0.5,1.8-1.6,0.6-2
			c-5.9-2.1-11.6,0.5-17.2,2.4c-2.8,1-5.7,1.8-8.8,1.6c-3.2-0.2-6.2-1.5-8.8-3.3C6.9,14.9,5.9,16.8,7,17.5L7,17.5z"/>
	</g>
	<g>
		<path class="st0" d="M7,21.5c4.8,3.4,10.4,4.4,16.1,2.9c6.2-1.6,12.5-5.7,19.1-3.4c1.3,0.5,1.8-1.6,0.6-2
			c-5.9-2.1-11.6,0.5-17.2,2.4c-2.8,1-5.7,1.8-8.8,1.6c-3.2-0.2-6.2-1.5-8.8-3.3C6.9,18.9,5.9,20.7,7,21.5L7,21.5z"/>
	</g>
	<g>
		<path class="st0" d="M7,25.5c4.8,3.4,10.4,4.4,16.1,2.9c6.2-1.6,12.5-5.7,19.1-3.4c1.3,0.5,1.8-1.6,0.6-2
			c-5.9-2.1-11.6,0.5-17.2,2.4c-2.8,1-5.7,1.8-8.8,1.6c-3.2-0.2-6.2-1.5-8.8-3.3C6.9,22.9,5.9,24.7,7,25.5L7,25.5z"/>
	</g>
	<g>
		<path class="st0" d="M7,29.5c4.8,3.4,10.4,4.4,16.1,2.9c6.2-1.6,12.5-5.7,19.1-3.4c1.3,0.5,1.8-1.6,0.6-2
			c-5.9-2.1-11.6,0.5-17.2,2.4c-2.8,1-5.7,1.8-8.8,1.6c-3.2-0.2-6.2-1.5-8.8-3.3C6.9,26.9,5.9,28.7,7,29.5L7,29.5z"/>
	</g>
	<g>
		<path class="st0" d="M7,33.5c4.8,3.4,10.4,4.4,16.1,2.9c6.2-1.6,12.5-5.7,19.1-3.4c1.3,0.5,1.8-1.6,0.6-2
			c-5.9-2.1-11.6,0.5-17.2,2.4c-2.8,1-5.7,1.8-8.8,1.6c-3.2-0.2-6.2-1.5-8.8-3.3C6.9,30.9,5.9,32.7,7,33.5L7,33.5z"/>
	</g>
</g>
</svg>
