<?xml version="1.0" encoding="utf-8"?>
<!-- Generator: Adobe Illustrator 19.2.1, SVG Export Plug-In . SVG Version: 6.00 Build 0)  -->
<!DOCTYPE svg PUBLIC "-//W3C//DTD SVG 1.1//EN" "http://www.w3.org/Graphics/SVG/1.1/DTD/svg11.dtd">
<svg version="1.1" id="hazy" xmlns="http://www.w3.org/2000/svg" xmlns:xlink="http://www.w3.org/1999/xlink" x="0px" y="0px"
	 width="50px" height="50px" viewBox="0 0 50 50" style="enable-background:new 0 0 50 50;" xml:space="preserve">
<style type="text/css">
	.st0{fill:#232020;}
	.st1{fill:#231F20;}
</style>
<g>
	<g>
		<path class="st0" d="M6.2,24.7c5.1,3.6,11.1,4.7,17.1,3c6.7-1.8,13.6-6.2,20.7-3.6c0.6,0.2,0.9-0.8,0.3-1
			C38,20.9,31.9,23.7,26,25.8c-3.2,1.1-6.5,2-9.9,1.7s-6.6-1.7-9.4-3.7C6.2,23.4,5.7,24.3,6.2,24.7L6.2,24.7z"/>
	</g>
	<g>
		<path class="st0" d="M6,29.4c5.2,3.7,11.3,4.7,17.5,3.1c6.6-1.8,13.4-6.1,20.4-3.6c1.2,0.4,1.8-1.5,0.5-2
			c-6.3-2.3-12.6,0.5-18.5,2.6c-3.1,1.1-6.4,2-9.7,1.7S9.8,29.5,7,27.6C5.9,26.9,4.9,28.7,6,29.4L6,29.4z"/>
	</g>
	<g>
		<path class="st0" d="M6,33.7c5.2,3.7,11.3,4.7,17.5,3.1c6.6-1.8,13.4-6.1,20.4-3.6c1.2,0.4,1.8-1.5,0.5-2
			c-6.3-2.3-12.6,0.5-18.5,2.6c-3.1,1.1-6.4,2-9.7,1.7S9.8,33.8,7,31.9C5.9,31.2,4.9,32.9,6,33.7L6,33.7z"/>
	</g>
	<g>
		<path class="st1" d="M18.5,13.5c-2.4,0-4.4,2-4.4,4.4s2,4.4,4.4,4.4s4.4-2,4.4-4.4C23,15.5,21,13.5,18.5,13.5z M18.5,21.7
			c-2.1,0-3.7-1.7-3.7-3.7s1.7-3.7,3.7-3.7s3.7,1.7,3.7,3.7S20.6,21.7,18.5,21.7z"/>
		<path class="st1" d="M18.5,12.8c0.2,0,0.4-0.2,0.4-0.4v-1.2c0-0.2-0.2-0.4-0.4-0.4s-0.4,0.2-0.4,0.4v1.2
			C18.2,12.6,18.3,12.8,18.5,12.8z"/>
		<path class="st1" d="M18.5,23.1c-0.2,0-0.4,0.2-0.4,0.4v1.2c0,0.2,0.2,0.4,0.4,0.4s0.4-0.2,0.4-0.4v-1.2
			C18.9,23.2,18.7,23.1,18.5,23.1z"/>
		<path class="st1" d="M13.4,17.9c0-0.2-0.2-0.4-0.4-0.4h-1.2c-0.2,0-0.4,0.2-0.4,0.4c0,0.2,0.2,0.4,0.4,0.4H13
			C13.2,18.3,13.4,18.1,13.4,17.9z"/>
		<path class="st1" d="M25.2,17.6H24c-0.2,0-0.4,0.2-0.4,0.4c0,0.2,0.2,0.4,0.4,0.4h1.2c0.2,0,0.4-0.2,0.4-0.4
			C25.5,17.7,25.4,17.6,25.2,17.6z"/>
		<path class="st1" d="M15.5,13.4c0.1,0.1,0.2,0.2,0.3,0.2s0.1,0,0.2,0c0.2-0.1,0.2-0.3,0.1-0.5l-0.6-1c-0.1-0.2-0.3-0.2-0.5-0.1
			c-0.2,0.1-0.2,0.3-0.1,0.5L15.5,13.4z"/>
		<path class="st1" d="M21.6,22.5c-0.1-0.2-0.3-0.2-0.5-0.1s-0.2,0.3-0.1,0.5l0.6,1c0.1,0.1,0.2,0.2,0.3,0.2c0.1,0,0.1,0,0.2,0
			c0.2-0.1,0.2-0.3,0.1-0.5L21.6,22.5z"/>
		<path class="st1" d="M13.6,20.4l-1,0.6c-0.2,0.1-0.2,0.3-0.1,0.5c0.1,0.1,0.2,0.2,0.3,0.2s0.1,0,0.2,0l1-0.6
			c0.2-0.1,0.2-0.3,0.1-0.5C14,20.3,13.8,20.3,13.6,20.4z"/>
		<path class="st1" d="M23.3,15.5c0.1,0,0.1,0,0.2,0l1-0.6c0.2-0.1,0.2-0.3,0.1-0.5s-0.3-0.2-0.5-0.1l-1,0.6
			c-0.2,0.1-0.2,0.3-0.1,0.5C23,15.5,23.1,15.5,23.3,15.5z"/>
		<path class="st1" d="M12.6,14.9l1,0.6c0.1,0,0.1,0,0.2,0c0.1,0,0.2-0.1,0.3-0.2c0.1-0.2,0-0.4-0.1-0.5l-1-0.6
			c-0.2-0.1-0.4,0-0.5,0.1C12.4,14.6,12.4,14.8,12.6,14.9z"/>
		<path class="st1" d="M24.5,21l-1-0.6c-0.2-0.1-0.4,0-0.5,0.1c-0.1,0.2,0,0.4,0.1,0.5l1,0.6c0.1,0,0.1,0,0.2,0s0.2-0.1,0.3-0.2
			C24.7,21.3,24.6,21,24.5,21z"/>
		<path class="st1" d="M15.9,22.4c-0.2-0.1-0.4,0-0.5,0.1l-0.6,1c-0.1,0.2,0,0.4,0.1,0.5c0.1,0,0.1,0,0.2,0c0.1,0,0.2-0.1,0.3-0.2
			l0.6-1C16.2,22.7,16.1,22.5,15.9,22.4z"/>
		<path class="st1" d="M21.1,13.5c0.1,0,0.1,0,0.2,0s0.2-0.1,0.3-0.2l0.6-1c0.1-0.2,0-0.4-0.1-0.5c-0.2-0.1-0.4,0-0.5,0.1L21,13
			C20.9,13.2,20.9,13.4,21.1,13.5z"/>
	</g>
	<g>
		<path class="st0" d="M6,25.1c5.2,3.7,11.3,4.7,17.5,3.1c6.6-1.8,13.4-6.1,20.4-3.6c1.2,0.4,1.8-1.5,0.5-2
			c-6.3-2.3-12.6,0.5-18.5,2.6c-3.1,1.1-6.4,2-9.7,1.7S9.8,25.2,7,23.3C5.9,22.6,4.9,24.4,6,25.1L6,25.1z"/>
	</g>
</g>
</svg>
