<?xml version="1.0" encoding="utf-8"?>
<!-- Generator: Adobe Illustrator 19.2.1, SVG Export Plug-In . SVG Version: 6.00 Build 0)  -->
<!DOCTYPE svg PUBLIC "-//W3C//DTD SVG 1.1//EN" "http://www.w3.org/Graphics/SVG/1.1/DTD/svg11.dtd">
<svg version="1.1" id="mostlysunny" xmlns="http://www.w3.org/2000/svg" xmlns:xlink="http://www.w3.org/1999/xlink" x="0px"
	 y="0px" width="50px" height="50px" viewBox="0 0 50 50" style="enable-background:new 0 0 50 50;" xml:space="preserve">
<style type="text/css">
	.st0{fill:none;}
	.st1{fill:#231F20;}
</style>
<g>
	<path class="st0" d="M33.1,24.9c0-5.2-4.2-9.4-9.4-9.4s-9.4,4.2-9.4,9.4s4.2,9.4,9.4,9.4c2,0,3.8-0.6,5.3-1.6
		c0.3-0.3,0.6-0.6,1-0.8C31.9,30.3,33.1,27.7,33.1,24.9z"/>
	<path class="st1" d="M28.4,33.8c0.1-0.4,0.3-0.8,0.5-1.1c-1.5,1-3.3,1.6-5.3,1.6c-5.2,0-9.4-4.2-9.4-9.4s4.2-9.4,9.4-9.4
		s9.4,4.2,9.4,9.4c0,2.8-1.2,5.3-3.2,7c0.4-0.2,0.7-0.3,1.2-0.3c0.2,0,0.3,0,0.5,0c0.5-1,1.3-1.8,2.3-2.2c0.6-1.4,0.9-2.9,0.9-4.5
		c0-6.2-5-11.2-11.2-11.2c-6.1,0-11.2,5-11.2,11.2c0,6.1,5,11.2,11.2,11.2c0.8,0,1.6-0.1,2.4-0.3C26.5,35,27.3,34.2,28.4,33.8z"/>
	<path class="st1" d="M23.7,12c0.5,0,0.9-0.4,0.9-0.9V8.2c0-0.5-0.4-0.9-0.9-0.9s-0.9,0.4-0.9,0.9v2.9C22.8,11.7,23.2,12,23.7,12z"
		/>
	<path class="st1" d="M23.7,37.9c-0.5,0-0.9,0.4-0.9,0.9v2.9c0,0.5,0.4,0.9,0.9,0.9s0.9-0.4,0.9-0.9v-2.9
		C24.6,38.3,24.2,37.9,23.7,37.9z"/>
	<path class="st1" d="M10.8,25c0-0.5-0.4-0.9-0.9-0.9h-3C6.5,24.1,6,24.5,6,25s0.4,0.9,0.9,0.9h2.9C10.4,25.9,10.8,25.5,10.8,25z"/>
	<path class="st1" d="M36.6,25c0,0.5,0.4,0.9,0.9,0.9h2.9c0.5,0,0.9-0.4,0.9-0.9s-0.5-0.9-0.9-0.9h-2.9C37,24.1,36.6,24.5,36.6,25z"
		/>
	<path class="st1" d="M16.1,13.5c0.2,0.3,0.5,0.5,0.7,0.5s0.3,0,0.5-0.1c0.5-0.3,0.5-0.8,0.4-1.2l-1.5-2.6c-0.3-0.5-0.8-0.5-1.2-0.4
		c-0.5,0.3-0.5,0.8-0.4,1.2L16.1,13.5z"/>
	<path class="st1" d="M11.3,31.2l-2.6,1.5c-0.5,0.3-0.5,0.8-0.4,1.2c0.2,0.3,0.5,0.5,0.7,0.5s0.3,0,0.5-0.1l2.6-1.5
		c0.5-0.3,0.5-0.8,0.4-1.2C12.2,31,11.8,30.9,11.3,31.2z"/>
	<path class="st1" d="M35.7,19c0.2,0,0.3,0,0.5-0.1l2.6-1.5c0.5-0.3,0.5-0.8,0.4-1.2c-0.3-0.5-0.8-0.5-1.2-0.4l-2.6,1.5
		c-0.5,0.3-0.5,0.8-0.4,1.2C35,18.8,35.3,19,35.7,19z"/>
	<path class="st1" d="M8.7,17.3l2.6,1.5c0.2,0.1,0.3,0.1,0.5,0.1c0.3,0,0.6-0.2,0.7-0.5c0.3-0.5,0.1-0.9-0.4-1.2l-2.6-1.5
		c-0.5-0.3-0.9-0.1-1.2,0.4C8.2,16.6,8.4,17.2,8.7,17.3z"/>
	<path class="st1" d="M17.3,36.2c-0.5-0.3-0.9-0.1-1.2,0.4l-1.5,2.6c-0.3,0.5-0.1,0.9,0.4,1.2c0.2,0.1,0.3,0.1,0.5,0.1
		c0.3,0,0.6-0.2,0.7-0.5l1.5-2.6C17.8,36.9,17.6,36.4,17.3,36.2z"/>
	<path class="st1" d="M30.2,13.8c0.2,0.1,0.3,0.1,0.5,0.1c0.3,0,0.6-0.2,0.7-0.5l1.5-2.6c0.3-0.5,0.1-0.9-0.4-1.2
		c-0.5-0.2-1,0-1.2,0.4l-1.5,2.6C29.6,13,29.7,13.6,30.2,13.8z"/>
	<path class="st1" d="M40.7,32.4c-0.6-2-2.6-3.4-4.8-3.4c-0.7,0-1.4,0.2-2,0.4c-1,0.4-1.8,1.2-2.3,2.2c-0.2,0-0.3,0-0.5,0
		c-0.4,0-0.8,0.1-1.2,0.3c-0.4,0.2-0.7,0.4-1,0.8c-0.3,0.3-0.4,0.7-0.5,1.1c-1.1,0.4-1.9,1.1-2.4,2.1c-0.2,0.5-0.4,1.1-0.4,1.6
		c0,2.2,1.7,3.9,3.9,3.9h9.6c2.6,0,4.6-2.1,4.6-4.6C43.9,34.8,42.6,33,40.7,32.4z M39.3,40.6h-9.6c-1.6,0-3.1-1.4-3.1-3.1
		c0-1.5,1-2.7,2.4-3l0.3-0.1v-0.3c0.1-0.9,0.9-1.6,1.8-1.6c0.2,0,0.4,0,0.5,0.1l0.4,0.1l0.2-0.4c0.6-1.5,2.1-2.5,3.8-2.5
		c1.8,0,3.5,1.2,3.9,3l0.1,0.3l0.3,0.1c1.6,0.5,2.8,1.9,2.8,3.7C43.1,38.9,41.4,40.6,39.3,40.6z"/>
</g>
</svg>
