<?xml version="1.0" encoding="utf-8"?>
<!-- Generator: Adobe Illustrator 19.2.1, SVG Export Plug-In . SVG Version: 6.00 Build 0)  -->
<!DOCTYPE svg PUBLIC "-//W3C//DTD SVG 1.1//EN" "http://www.w3.org/Graphics/SVG/1.1/DTD/svg11.dtd">
<svg version="1.1" id="mostlycloudy" xmlns="http://www.w3.org/2000/svg" xmlns:xlink="http://www.w3.org/1999/xlink" x="0px"
	 y="0px" width="50px" height="50px" viewBox="0 0 50 50" style="enable-background:new 0 0 50 50;" xml:space="preserve">
<style type="text/css">
	.st0{fill:#231F20;}
</style>
<g>
	<path class="st0" d="M40,26.1c-1.2-3.5-4.5-5.9-8.3-5.9c-0.6,0-1.3,0.1-1.9,0.2c-1.6-1.9-3.9-3.1-6.5-3.1c-0.1,0-0.3,0-0.4,0
		c-1.1-2.8-3.7-4.7-6.8-4.7c-4,0-7.3,3.3-7.3,7.3c0,1.9,0.7,3.6,2,5l0,0c0,0.1-0.1,0.2-0.1,0.3c-2.7,0.9-4.6,3.4-4.6,6.3
		c0,3.6,3,6.6,6.6,6.6h1.8c1.1,2.2,3.5,3.8,6.1,3.8h16.9c4.4,0,8.1-3.6,8.1-8.1C45.7,30.2,43.3,27.1,40,26.1z M10.3,19.8
		c0-3.2,2.6-5.8,5.8-5.8c2.3,0,4.4,1.4,5.3,3.5c-2.3,0.5-4.3,2.1-5.5,4.2c-0.2,0-0.5-0.1-0.7-0.1c-1.5,0-2.8,0.7-3.7,1.9
		C10.7,22.4,10.3,21.2,10.3,19.8z M12.8,36.6c-2.8,0-5.2-2.3-5.2-5.2c0-2.4,1.6-4.5,4-5l0.5-0.1l0.1-0.5c0.2-1.6,1.5-2.8,3.1-2.8
		c0.3,0,0.6,0,0.9,0.1l0.6,0.2l0.3-0.6c1.1-2.5,3.6-4.1,6.3-4.1c1.9,0,3.7,0.8,5,2.2c-1.8,0.8-3.4,2.1-4.3,3.9
		c-0.2,0-0.5-0.1-0.7-0.1c-2.2,0-4.2,1.6-4.6,3.7c-2.9,0.9-4.8,3.5-4.8,6.6c0,0.6,0.1,1.1,0.2,1.6h-1.4
		C12.8,36.5,12.8,36.6,12.8,36.6z M30.7,21.7c0.3,0,0.6-0.1,1-0.1c3.2,0,6.1,2.2,7,5.2l0.1,0.4l0.4,0.1c2.9,0.7,5,3.3,5,6.4
		c0,3.6-2.9,6.6-6.6,6.6H20.7c-1.8,0-3.6-0.9-4.4-2.2c0,0-0.4-0.5-0.7-1.6c-0.2-0.5-0.2-1-0.2-1.6c0-2.5,1.7-4.7,4.1-5.2l0.5-0.1
		l0.1-0.5c0.2-1.6,1.6-2.9,3.2-2.9c0.3,0,0.6,0,0.9,0.1l0.6,0.2l0.3-0.6c0.8-1.8,2.3-3.2,4.2-3.8C29.3,22.1,30,21.8,30.7,21.7
		C31.5,21.7,30.7,21.7,30.7,21.7"/>
	<path class="st0" d="M16.1,11.2c0.4,0,0.7-0.3,0.7-0.7V8.7c0-0.4-0.3-0.7-0.7-0.7c-0.4,0-0.7,0.3-0.7,0.7v1.8
		C15.4,10.9,15.7,11.2,16.1,11.2z"/>
	<path class="st0" d="M7.5,19.9c0-0.4-0.3-0.7-0.7-0.7H5c-0.4,0-0.7,0.3-0.7,0.7s0.3,0.7,0.7,0.7h1.8C7.2,20.6,7.5,20.2,7.5,19.9z"
		/>
	<path class="st0" d="M10.8,12.1c0.1,0.2,0.4,0.4,0.6,0.4c0.1,0,0.2,0,0.4-0.1c0.3-0.2,0.5-0.6,0.3-1l-0.9-1.6
		c-0.2-0.3-0.6-0.5-1-0.3c-0.3,0.2-0.5,0.6-0.3,1L10.8,12.1z"/>
	<path class="st0" d="M6.8,26.1l1.6-0.9c0.3-0.2,0.5-0.6,0.3-1c-0.2-0.3-0.6-0.5-1-0.3l-1.6,0.9c-0.3,0.2-0.5,0.6-0.3,1
		c0.1,0.2,0.4,0.4,0.6,0.4C6.5,26.2,6.7,26.1,6.8,26.1z"/>
	<path class="st0" d="M24.2,15.9c0.1,0,0.2,0,0.4-0.1l1.6-0.9c0.3-0.2,0.5-0.6,0.3-1c-0.2-0.3-0.6-0.5-1-0.3l-1.6,0.9
		c-0.3,0.2-0.5,0.6-0.3,1C23.7,15.8,23.9,15.9,24.2,15.9z"/>
	<path class="st0" d="M6.1,14.9l1.6,0.9c0.1,0.1,0.2,0.1,0.4,0.1s0.5-0.1,0.6-0.4c0.2-0.3,0.1-0.8-0.3-1l-1.6-0.9
		c-0.3-0.2-0.8-0.1-1,0.3C5.6,14.2,5.7,14.7,6.1,14.9z"/>
	<path class="st0" d="M20.4,12.4c0.1,0.1,0.2,0.1,0.4,0.1s0.5-0.1,0.6-0.4l0.9-1.6c0.2-0.3,0.1-0.8-0.3-1c-0.3-0.2-0.8-0.1-1,0.3
		l-0.9,1.6C20,11.8,20.1,12.2,20.4,12.4z"/>
</g>
</svg>
