<?xml version="1.0" encoding="utf-8"?>
<!-- Generator: Adobe Illustrator 19.2.1, SVG Export Plug-In . SVG Version: 6.00 Build 0)  -->
<!DOCTYPE svg PUBLIC "-//W3C//DTD SVG 1.1//EN" "http://www.w3.org/Graphics/SVG/1.1/DTD/svg11.dtd">
<svg version="1.1" id="partlycloudy" xmlns="http://www.w3.org/2000/svg" xmlns:xlink="http://www.w3.org/1999/xlink" x="0px"
	 y="0px" width="50px" height="50px" viewBox="0 0 50 50" style="enable-background:new 0 0 50 50;" xml:space="preserve">
<style type="text/css">
	.st0{fill:none;}
	.st1{fill:#231F20;}
</style>
<g>
	<g>
		<path class="st0" d="M23.2,14.9c-5,0-9.1,4.1-9.1,9.1c0,4.5,3.3,8.2,7.6,9c0.4-0.3,0.9-0.6,1.4-0.7c0.4-1.6,1.8-2.7,3.4-2.7
			c0.2,0,0.4,0,0.5,0c1-1.9,2.9-3.1,5-3.4c0.2-0.7,0.2-1.4,0.2-2.1C32.3,18.9,28.2,14.9,23.2,14.9z"/>
	</g>
	<g>
		<path class="st1" d="M21.7,32.9c-4.3-0.7-7.6-4.4-7.6-9c0-5,4.1-9.1,9.1-9.1s9.1,4.1,9.1,9.1c0,0.7-0.1,1.4-0.2,2.1
			c0.3,0,0.5-0.1,0.8-0.1s0.6,0,0.9,0.1c0.1-0.7,0.2-1.3,0.2-2c0-5.9-4.8-10.8-10.8-10.8c-5.9,0-10.8,4.9-10.8,10.8
			c0,4.9,3.4,9.1,7.9,10.4C20.7,33.8,21.1,33.3,21.7,32.9z"/>
	</g>
	<g>
		<path class="st1" d="M23.2,11.6c0.4,0,0.9-0.4,0.9-0.9V7.9c0-0.4-0.4-0.9-0.9-0.9s-0.9,0.4-0.9,0.9v2.8
			C22.4,11.1,22.7,11.6,23.2,11.6z"/>
	</g>
	<g>
		<path class="st1" d="M10.7,24c0-0.4-0.4-0.9-0.9-0.9H7c-0.4,0-0.9,0.4-0.9,0.9c0,0.4,0.4,0.9,0.9,0.9h2.8
			C10.4,24.8,10.7,24.5,10.7,24z"/>
	</g>
	<g>
		<path class="st1" d="M35.6,24c0,0.4,0.4,0.9,0.9,0.9h2.8c0.4,0,0.9-0.4,0.9-0.9s-0.4-0.9-0.9-0.9h-2.8
			C36.1,23.2,35.6,23.5,35.6,24z"/>
	</g>
	<g>
		<path class="st1" d="M15.9,12.9c0.2,0.3,0.4,0.4,0.7,0.4c0.2,0,0.3,0,0.4-0.1c0.4-0.3,0.5-0.8,0.4-1.1L16,9.6
			c-0.3-0.4-0.8-0.5-1.1-0.4c-0.4,0.3-0.5,0.8-0.4,1.1L15.9,12.9z"/>
	</g>
	<g>
		<path class="st1" d="M11.3,30l-2.5,1.4c-0.4,0.3-0.5,0.8-0.4,1.1C8.6,32.8,8.9,33,9.1,33c0.2,0,0.3,0,0.4-0.1l2.5-1.4
			c0.4-0.3,0.5-0.8,0.4-1.1C12.2,29.9,11.7,29.7,11.3,30z"/>
	</g>
	<g>
		<path class="st1" d="M34.7,18.2c0.2,0,0.3,0,0.4-0.1l2.5-1.4c0.4-0.3,0.5-0.8,0.4-1.1c-0.3-0.4-0.8-0.5-1.1-0.4l-2.5,1.4
			c-0.4,0.3-0.5,0.8-0.4,1.1C34.1,18,34.5,18.2,34.7,18.2z"/>
	</g>
	<g>
		<path class="st1" d="M11.3,18.1c0.2,0.1,0.3,0.1,0.4,0.1c0.3,0,0.6-0.2,0.7-0.4c0.3-0.4,0.1-0.9-0.4-1.1l-2.5-1.4
			c-0.4-0.3-0.9-0.1-1.1,0.4c-0.2,0.4,0,0.9,0.4,1.1L11.3,18.1z"/>
	</g>
	<g>
		<path class="st1" d="M15.9,35.2l-1.4,2.5c-0.3,0.4-0.1,0.9,0.4,1.1c0.2,0.1,0.3,0.1,0.4,0.1c0.3,0,0.6-0.2,0.7-0.4l1.4-2.5
			c0.2-0.4,0-0.9-0.4-1.1C16.6,34.5,16.1,34.7,15.9,35.2z"/>
	</g>
	<g>
		<path class="st1" d="M29.5,13.3c0.2,0.1,0.3,0.1,0.4,0.1c0.3,0,0.6-0.2,0.7-0.4l1.4-2.5c0.3-0.4,0.1-0.9-0.4-1.1
			c-0.4-0.3-0.9-0.1-1.1,0.4l-1.4,2.5C28.9,12.5,29,13,29.5,13.3z"/>
	</g>
	<g>
		<path class="st1" d="M37.2,42.6H24.7c-3.1,0-5.6-2.5-5.6-5.6c0-1,0.3-2,0.8-2.8c0.4-0.7,0.9-1.2,1.5-1.6c0.4-0.3,0.9-0.5,1.3-0.7
			c0.5-1.7,2-2.8,3.8-2.8h0.3c1.1-1.9,3-3.1,5.2-3.4c0.6-0.1,1.1-0.1,1.8,0c2.5,0.4,4.6,2.1,5.5,4.4c2.6,0.8,4.3,3.3,4.3,6.1
			C43.7,39.7,40.8,42.6,37.2,42.6z M26.5,29.9c-1.5,0-2.7,1-3,2.4l-0.1,0.2l-0.2,0.1c-0.5,0.2-0.9,0.4-1.3,0.7
			c-0.5,0.4-0.9,0.8-1.2,1.4C20.2,35.4,20,36.2,20,37c0,2.6,2.1,4.7,4.7,4.7h12.5c3.1,0,5.6-2.5,5.6-5.6c0-2.5-1.6-4.6-3.9-5.3
			l-0.2-0.1l-0.1-0.2c-0.7-2.1-2.6-3.7-4.9-4c-0.6-0.1-1.1-0.1-1.6,0c-2,0.2-3.7,1.4-4.6,3.2l-0.1,0.2
			C27.4,29.9,26.5,29.9,26.5,29.9z"/>
	</g>
</g>
</svg>
