<?xml version="1.0" encoding="utf-8"?>
<!-- Generator: Adobe Illustrator 19.2.1, SVG Export Plug-In . SVG Version: 6.00 Build 0)  -->
<!DOCTYPE svg PUBLIC "-//W3C//DTD SVG 1.1//EN" "http://www.w3.org/Graphics/SVG/1.1/DTD/svg11.dtd">
<svg version="1.1" id="rain" xmlns="http://www.w3.org/2000/svg" xmlns:xlink="http://www.w3.org/1999/xlink" x="0px" y="0px"
	 width="50px" height="50px" viewBox="0 0 50 50" style="enable-background:new 0 0 50 50;" xml:space="preserve">
<style type="text/css">
	.st0{fill:#231F20;}
</style>
<g>
	<path class="st0" d="M37.7,14.9c-1.5-4.3-5.6-7.2-10.1-7.2c-3.9,0-7.6,2.2-9.4,5.6c-0.3,0-0.6-0.1-0.9-0.1c-2.8,0-5.1,1.9-5.7,4.5
		c-3.5,1.1-5.9,4.3-5.9,8c0,4.6,3.8,8.4,8.4,8.4l0,0c0.5,0,1-0.4,1-1c0-0.5-0.4-1-1-1c-3.6,0-6.5-2.9-6.5-6.5c0-3,2.1-5.6,5-6.3
		l0.7-0.2l0.1-0.7c0.2-2,1.9-3.5,3.9-3.5c0.4,0,0.8,0.1,1.1,0.2l0.8,0.2l0.3-0.8c1.4-3.1,4.6-5.2,8-5.2c3.9,0,7.4,2.6,8.4,6.4
		l0.2,0.5l0.5,0.1c3.5,0.9,6,4.1,6,7.7c0,4.4-3.6,8-8,8h-0.1c-0.5,0-1,0.4-1,1c0,0.5,0.4,1,1,1h0.1c5.5,0,9.9-4.4,9.9-9.9
		C44.7,20,41.8,16.2,37.7,14.9z"/>
	<path class="st0" d="M27.8,38c0.5,0,0.9-0.4,0.9-0.9s-0.4-1.7-0.9-1.7s-0.9,1.2-0.9,1.7S27.3,38,27.8,38z"/>
	<path class="st0" d="M27.8,43.5c0.5,0,0.9-0.4,0.9-0.9s-0.4-1.7-0.9-1.7s-0.9,1.2-0.9,1.7S27.3,43.5,27.8,43.5z"/>
	<path class="st0" d="M32.2,37.6c0.5,0,0.9-0.4,0.9-0.9S32.7,35,32.2,35s-0.9,1.2-0.9,1.7C31.3,37.2,31.7,37.6,32.2,37.6z"/>
	<path class="st0" d="M30.4,34.9c0.5,0,0.9-0.4,0.9-0.9s-0.4-1.7-0.9-1.7s-0.9,1.2-0.9,1.7S29.9,34.9,30.4,34.9z"/>
	<path class="st0" d="M30.2,41c0.5,0,0.9-0.4,0.9-0.9s-0.4-1.7-0.9-1.7s-0.9,1.2-0.9,1.7C29.3,40.6,29.7,41,30.2,41z"/>
	<path class="st0" d="M22.8,38c0.5,0,0.9-0.4,0.9-0.9s-0.4-1.4-0.9-1.4s-0.9,0.9-0.9,1.4S22.3,38,22.8,38z"/>
	<path class="st0" d="M25.3,34.7c0.5,0,0.9-0.4,0.9-0.9s-0.4-1.4-0.9-1.4s-0.9,0.9-0.9,1.4S24.8,34.7,25.3,34.7z"/>
	<path class="st0" d="M25.3,40.8c0.5,0,0.9-0.4,0.9-0.9s-0.4-1.4-0.9-1.4s-0.9,0.9-0.9,1.4C24.4,40.4,24.8,40.8,25.3,40.8z"/>
	<path class="st0" d="M20.2,34.7c0.5,0,0.9-0.4,0.9-0.9s-0.4-1.4-0.9-1.4s-0.9,0.9-0.9,1.4C19.3,34.3,19.7,34.7,20.2,34.7z"/>
	<path class="st0" d="M20.7,42c0.5,0,0.9-0.4,0.9-0.9s-0.4-1.4-0.9-1.4s-0.9,0.9-0.9,1.4C19.8,41.6,20.2,42,20.7,42z"/>
	<path class="st0" d="M17.7,38c0.5,0,0.9-0.4,0.9-0.9s-0.4-1.4-0.9-1.4s-0.9,0.9-0.9,1.4C16.8,37.6,17.2,38,17.7,38z"/>
</g>
</svg>
