<?xml version="1.0" encoding="utf-8"?>
<!-- Generator: Adobe Illustrator 19.2.1, SVG Export Plug-In . SVG Version: 6.00 Build 0)  -->
<!DOCTYPE svg PUBLIC "-//W3C//DTD SVG 1.1//EN" "http://www.w3.org/Graphics/SVG/1.1/DTD/svg11.dtd">
<svg version="1.1" id="sunny" xmlns="http://www.w3.org/2000/svg" xmlns:xlink="http://www.w3.org/1999/xlink" x="0px" y="0px"
	 width="50px" height="50px" viewBox="0 0 50 50" style="enable-background:new 0 0 50 50;" xml:space="preserve">
<style type="text/css">
	.st0{fill:#231F20;}
</style>
<g>
	<path class="st0" d="M25.1,13.5c-6.3,0-11.5,5.2-11.5,11.5s5.2,11.5,11.5,11.5S36.6,31.3,36.6,25S31.5,13.5,25.1,13.5z M25.1,34.6
		c-5.4,0-9.7-4.3-9.7-9.7s4.3-9.7,9.7-9.7s9.7,4.3,9.7,9.7S30.5,34.6,25.1,34.6z"/>
	<path class="st0" d="M25.1,11.7c0.5,0,0.9-0.4,0.9-0.9v-3c0-0.5-0.4-0.9-0.9-0.9c-0.6,0-0.9,0.4-0.9,0.9v3
		C24.3,11.3,24.7,11.7,25.1,11.7z"/>
	<path class="st0" d="M25.1,38.3c-0.5,0-0.9,0.4-0.9,0.9v3c0,0.5,0.4,0.9,0.9,0.9c0.6,0,0.9-0.4,0.9-0.9v-3
		C26.1,38.7,25.7,38.3,25.1,38.3z"/>
	<path class="st0" d="M11.8,25c0-0.5-0.4-0.9-0.9-0.9h-3C7.4,24.1,7,24.5,7,25s0.4,0.9,0.9,0.9h3C11.5,25.9,11.8,25.5,11.8,25z"/>
	<path class="st0" d="M42.4,24.1h-3c-0.5,0-0.9,0.4-0.9,0.9s0.4,0.9,0.9,0.9h3c0.5,0,0.9-0.4,0.9-0.9C43.3,24.5,42.8,24.1,42.4,24.1
		z"/>
	<path class="st0" d="M17.3,13.2c0.2,0.3,0.5,0.5,0.8,0.5c0.2,0,0.3,0,0.5-0.1c0.5-0.3,0.6-0.8,0.4-1.2l-1.5-2.6
		c-0.3-0.5-0.8-0.6-1.2-0.4c-0.5,0.3-0.6,0.8-0.4,1.2L17.3,13.2z"/>
	<path class="st0" d="M33,36.8c-0.3-0.5-0.8-0.6-1.2-0.4c-0.5,0.3-0.6,0.8-0.4,1.2l1.5,2.6c0.2,0.3,0.5,0.5,0.8,0.5
		c0.2,0,0.3,0,0.5-0.1c0.5-0.3,0.6-0.8,0.4-1.2L33,36.8z"/>
	<path class="st0" d="M12.4,31.3l-2.6,1.5c-0.5,0.3-0.6,0.8-0.4,1.2c0.2,0.3,0.5,0.5,0.8,0.5c0.2,0,0.3,0,0.5-0.1l2.6-1.5
		c0.5-0.3,0.6-0.8,0.4-1.2C13.4,31.2,12.9,31.1,12.4,31.3z"/>
	<path class="st0" d="M37.5,18.8c0.2,0,0.3,0,0.5-0.1l2.6-1.5c0.5-0.3,0.6-0.8,0.4-1.2c-0.3-0.5-0.8-0.6-1.2-0.4l-2.6,1.5
		c-0.5,0.3-0.6,0.8-0.4,1.2C36.8,18.6,37.1,18.8,37.5,18.8z"/>
	<path class="st0" d="M9.8,17.2l2.6,1.5c0.2,0.1,0.3,0.1,0.5,0.1c0.3,0,0.7-0.2,0.8-0.5c0.3-0.5,0.1-0.9-0.4-1.2l-2.6-1.5
		c-0.5-0.3-0.9-0.1-1.2,0.4C9.2,16.4,9.4,16.9,9.8,17.2z"/>
	<path class="st0" d="M40.5,32.8l-2.6-1.5c-0.5-0.3-0.9-0.1-1.2,0.4c-0.3,0.5-0.1,0.9,0.4,1.2l2.6,1.5c0.2,0.1,0.3,0.1,0.5,0.1
		c0.3,0,0.7-0.2,0.8-0.5C41.1,33.6,40.9,33,40.5,32.8z"/>
	<path class="st0" d="M18.5,36.5c-0.5-0.3-0.9-0.1-1.2,0.4l-1.5,2.6c-0.3,0.5-0.1,0.9,0.4,1.2c0.2,0.1,0.3,0.1,0.5,0.1
		c0.3,0,0.7-0.2,0.8-0.5l1.5-2.6C19.1,37.3,18.9,36.8,18.5,36.5z"/>
	<path class="st0" d="M31.8,13.5c0.2,0.1,0.3,0.1,0.5,0.1c0.3,0,0.7-0.2,0.8-0.5l1.5-2.6c0.3-0.5,0.1-0.9-0.4-1.2S33.3,9.2,33,9.7
		l-1.5,2.6C31.2,12.7,31.3,13.3,31.8,13.5z"/>
</g>
</svg>
