<?xml version="1.0" encoding="utf-8"?>
<!-- Generator: Adobe Illustrator 19.2.1, SVG Export Plug-In . SVG Version: 6.00 Build 0)  -->
<!DOCTYPE svg PUBLIC "-//W3C//DTD SVG 1.1//EN" "http://www.w3.org/Graphics/SVG/1.1/DTD/svg11.dtd">
<svg version="1.1" id="tstorms" xmlns="http://www.w3.org/2000/svg" xmlns:xlink="http://www.w3.org/1999/xlink" x="0px" y="0px"
	 width="50px" height="50px" viewBox="0 0 50 50" style="enable-background:new 0 0 50 50;" xml:space="preserve">
<style type="text/css">
	.st0{fill:#231F20;}
</style>
<g>
	<path class="st0" d="M37.5,15.7C36,11.4,32,8.5,27.4,8.5c-3.9,0-7.5,2.2-9.4,5.6c-0.3,0-0.6-0.1-0.9-0.1c-2.7,0-5.1,1.9-5.7,4.5
		c-3.5,1.1-5.9,4.3-5.9,8c0,4.6,3.7,8.3,8.3,8.4l0,0c0.5,0,1-0.4,1-0.9s-0.4-1-0.9-1c-3.5-0.1-6.4-3-6.4-6.5c0-3,2.1-5.6,5-6.3
		l0.7-0.2l0.1-0.7c0.2-2,1.9-3.5,3.9-3.5c0.4,0,0.8,0.1,1.1,0.2l0.8,0.2l0.3-0.8c1.4-3.1,4.5-5.2,8-5.2c3.9,0,7.3,2.6,8.4,6.3L36,17
		l0.5,0.1c3.5,0.9,6,4,6,7.7c0,4.4-3.6,7.9-7.9,7.9h-0.1c-0.5,0-1,0.4-1,1c0,0.5,0.4,1,1,1h0.1c5.4,0,9.9-4.4,9.9-9.9
		C44.4,20.8,41.6,17,37.5,15.7z"/>
	<path class="st0" d="M18.4,33.2c-0.5-0.3-1-0.1-1.3,0.4l-2.4,4.2c-0.3,0.5-0.1,1,0.4,1.3c0.2,0.1,0.3,0.1,0.5,0.1
		c0.3,0,0.7-0.2,0.8-0.5l2.4-4.2C19.1,34,18.9,33.5,18.4,33.2z"/>
	<path class="st0" d="M21.9,36.8c-0.3-0.2-0.8-0.1-1,0.3l-1.8,3.1c-0.2,0.3-0.1,0.8,0.3,1c0.1,0.1,0.2,0.1,0.4,0.1
		c0.2,0,0.5-0.1,0.6-0.4l1.8-3.1C22.3,37.5,22.2,37,21.9,36.8z"/>
	<path class="st0" d="M13.2,36.8c-0.3-0.2-0.8-0.1-1,0.3l-1.8,3.1c-0.2,0.3-0.1,0.8,0.3,1c0.1,0.1,0.2,0.1,0.4,0.1s0.5-0.1,0.6-0.4
		l1.8-3.1C13.7,37.5,13.6,37,13.2,36.8z"/>
	<path class="st0" d="M34.6,37c-0.3-0.2-0.8-0.1-1,0.3l-1.8,3.1c-0.2,0.3-0.1,0.8,0.3,1c0.1,0.1,0.2,0.1,0.4,0.1s0.5-0.1,0.6-0.4
		l1.8-3.1C35.1,37.6,35,37.2,34.6,37z"/>
	<path class="st0" d="M31.9,33.2c-0.5-0.3-1-0.1-1.3,0.4l-3,5.1c-0.3,0.5-0.1,1,0.4,1.3c0.2,0.1,0.3,0.1,0.5,0.1
		c0.3,0,0.7-0.2,0.8-0.5l3-5.1C32.5,34,32.4,33.5,31.9,33.2z"/>
</g>
<path class="st0" d="M26.6,16.4l-6.8,10.5H24v6.7l6.2-10.4h-3.5L26.6,16.4z M25.2,29v-3.4h-3.1l3.3-5.1v3.8H28L25.2,29z"/>
</svg>
